<svg width="111" height="112" viewBox="0 0 111 112" fill="none" xmlns="http://www.w3.org/2000/svg">
<mask id="mask0_920_1845" style="mask-type:alpha" maskUnits="userSpaceOnUse" x="31" y="32" width="80" height="80">
<rect x="31" y="32" width="80" height="80" fill="#D9D9D9"/>
</mask>
<g mask="url(#mask0_920_1845)">
<path d="M44.3333 58.6666H97.6667V51.9999H44.3333V58.6666ZM37.6666 51.9999C37.6666 50.1666 38.32 48.5977 39.6266 47.2933C40.9311 45.9866 42.5 45.3333 44.3333 45.3333H97.6667C99.5 45.3333 101.07 45.9866 102.377 47.2933C103.681 48.5977 104.333 50.1666 104.333 51.9999V71.9999H44.3333V91.9999H58V98.6666H44.3333C42.5 98.6666 40.9311 98.0144 39.6266 96.7099C38.32 95.4033 37.6666 93.8333 37.6666 91.9999V51.9999ZM80.8333 105.333L66.6666 91.1666L71.3333 86.4999L80.8333 95.8332L99.6667 76.9999L104.333 81.8333L80.8333 105.333ZM44.3333 51.9999V91.9999V76.9999V86.4166V51.9999Z" fill="#202020"/>
</g>
<mask id="mask1_920_1845" style="mask-type:alpha" maskUnits="userSpaceOnUse" x="0" y="0" width="80" height="80">
<rect width="80" height="80" fill="#D9D9D9"/>
</mask>
<g mask="url(#mask1_920_1845)">
<path d="M73.3333 19.9999V59.9999C73.3333 61.8333 72.6811 63.4033 71.3767 64.7099C70.07 66.0144 68.5 66.6666 66.6667 66.6666H13.3333C11.5 66.6666 9.93109 66.0144 8.62665 64.7099C7.31998 63.4033 6.66665 61.8333 6.66665 59.9999V19.9999C6.66665 18.1666 7.31998 16.5977 8.62665 15.2933C9.93109 13.9866 11.5 13.3333 13.3333 13.3333H66.6667C68.5 13.3333 70.07 13.9866 71.3767 15.2933C72.6811 16.5977 73.3333 18.1666 73.3333 19.9999ZM13.3333 26.6666H66.6667V19.9999H13.3333V26.6666ZM13.3333 39.9999V59.9999H66.6667V39.9999H13.3333Z" fill="#202020"/>
</g>
</svg>
