<svg width="24" height="24" viewBox="0 0 24 24" fill="none" xmlns="http://www.w3.org/2000/svg">
<path d="M19 8.50016L18.0667 9.31683C17.7944 9.56961 17.4736 9.696 17.1042 9.696C16.7347 9.696 16.4139 9.58905 16.1417 9.37516C15.8694 9.16127 15.6847 8.88905 15.5875 8.5585C15.4903 8.22794 15.5 7.87794 15.6167 7.5085L16.0833 6.05016L15.0917 5.46683C14.7805 5.29183 14.562 5.03905 14.436 4.7085C14.3092 4.37794 14.2944 4.04738 14.3917 3.71683C14.4889 3.38627 14.6833 3.12844 14.975 2.94333C15.2667 2.759 15.5972 2.66683 15.9667 2.66683H17.1333L17.4833 1.5585C17.6 1.18905 17.7991 0.892329 18.0807 0.668329C18.363 0.445107 18.6694 0.333496 19 0.333496C19.3305 0.333496 19.637 0.445107 19.9193 0.668329C20.2009 0.892329 20.4 1.18905 20.5167 1.5585L20.8667 2.66683H22.0333C22.4028 2.66683 22.7287 2.759 23.011 2.94333C23.2925 3.12844 23.4917 3.38627 23.6083 3.71683C23.7444 4.06683 23.7444 4.40711 23.6083 4.73766C23.4722 5.06822 23.2583 5.31127 22.9667 5.46683L21.9167 6.05016L22.3833 7.5085C22.5 7.87794 22.5097 8.23261 22.4125 8.5725C22.3153 8.91316 22.1306 9.18072 21.8583 9.37516C21.5667 9.58905 21.2412 9.696 20.8818 9.696C20.5217 9.696 20.2055 9.56961 19.9333 9.31683L19 8.50016ZM19 6.16683C19.3305 6.16683 19.6074 6.05522 19.8307 5.832C20.0547 5.608 20.1667 5.33072 20.1667 5.00016C20.1667 4.66961 20.0547 4.39233 19.8307 4.16833C19.6074 3.94511 19.3305 3.8335 19 3.8335C18.6694 3.8335 18.3925 3.94511 18.1693 4.16833C17.9453 4.39233 17.8333 4.66961 17.8333 5.00016C17.8333 5.33072 17.9453 5.608 18.1693 5.832C18.3925 6.05522 18.6694 6.16683 19 6.16683ZM14.1 18.8835C14.5472 20.0502 14.4014 21.1391 13.6625 22.1502C12.9236 23.1613 11.8833 23.6668 10.5417 23.6668C9.89999 23.6668 9.29255 23.5016 8.71933 23.171C8.14533 22.8404 7.72222 22.4029 7.45 21.8585C5.83611 22.0918 4.4995 21.6784 3.44016 20.6183C2.38005 19.559 1.94722 18.2029 2.14166 16.5502C1.55833 16.2196 1.11111 15.7677 0.799995 15.1945C0.488884 14.6205 0.333328 13.9641 0.333328 13.2252C0.333328 12.0391 0.873106 11.0812 1.95266 10.3517C3.03144 9.62288 4.08611 9.47238 5.11666 9.90016L6.92499 10.6585C7.31388 10.0557 7.82916 9.56455 8.47083 9.185C9.1125 8.80622 9.80277 8.59738 10.5417 8.5585V6.16683H12.2917V8.79183C13.0111 9.00572 13.6042 9.34094 14.0708 9.7975C14.5375 10.2548 14.9361 10.8918 15.2667 11.7085H17.8333V13.4585H15.4417C15.4028 14.1974 15.2037 14.8877 14.8443 15.5293C14.4842 16.171 14.0028 16.6863 13.4 17.0752L14.1 18.8835ZM6.86666 19.5835C6.86666 19.0585 6.91061 18.5483 6.99849 18.0528C7.08561 17.5566 7.21666 17.0752 7.39166 16.6085C6.94444 16.8224 6.46299 16.9729 5.94733 17.06C5.43244 17.1479 4.92222 17.1724 4.41666 17.1335C4.41666 17.8918 4.63522 18.4899 5.07233 18.9278C5.51022 19.3649 6.10833 19.5835 6.86666 19.5835ZM4.70833 14.8002C5.33055 14.8002 5.88005 14.7224 6.35683 14.5668C6.83283 14.4113 7.44999 14.1002 8.20833 13.6335L4.70833 12.1752C4.14444 11.9418 3.66338 11.9465 3.26516 12.1892C2.86616 12.4326 2.66666 12.8168 2.66666 13.3418C2.66666 13.8474 2.83194 14.2168 3.1625 14.4502C3.49305 14.6835 4.00833 14.8002 4.70833 14.8002ZM10.5417 21.3335C11.0278 21.3335 11.4213 21.1632 11.7223 20.8225C12.0241 20.4826 12.0972 20.1279 11.9417 19.7585L10.3667 15.7918C9.99722 16.4141 9.71061 17.0363 9.50683 17.6585C9.30227 18.2807 9.2 18.8446 9.2 19.3502C9.2 19.9918 9.31199 20.4826 9.53599 20.8225C9.75922 21.1632 10.0944 21.3335 10.5417 21.3335ZM12.4667 14.8585C12.6611 14.6641 12.8167 14.4062 12.9333 14.085C13.05 13.7646 13.1083 13.4293 13.1083 13.0793C13.1083 12.4571 12.9042 11.9321 12.4958 11.5043C12.0875 11.0766 11.5819 10.8627 10.9792 10.8627C10.6292 10.8627 10.2986 10.921 9.98749 11.0377C9.67638 11.1543 9.41388 11.3196 9.2 11.5335L11.475 12.5835L12.4667 14.8585Z" fill="#202020"/>
</svg>
