<svg width="110" height="80" viewBox="0 0 110 80" fill="none" xmlns="http://www.w3.org/2000/svg">
<path d="M25 80C20.8333 80 17.2917 78.5417 14.375 75.625C11.4583 72.7083 10 69.1667 10 65H0V10C0 7.25 0.98 4.89667 2.94 2.94C4.89667 0.979999 7.25 0 10 0H80V20H95L110 40V65H100C100 69.1667 98.5417 72.7083 95.625 75.625C92.7083 78.5417 89.1667 80 85 80C80.8333 80 77.2917 78.5417 74.375 75.625C71.4583 72.7083 70 69.1667 70 65H40C40 69.1667 38.5417 72.7083 35.625 75.625C32.7083 78.5417 29.1667 80 25 80ZM25 70C26.4167 70 27.605 69.52 28.565 68.56C29.5217 67.6033 30 66.4167 30 65C30 63.5833 29.5217 62.3967 28.565 61.44C27.605 60.48 26.4167 60 25 60C23.5833 60 22.395 60.48 21.435 61.44C20.4783 62.3967 20 63.5833 20 65C20 66.4167 20.4783 67.6033 21.435 68.56C22.395 69.52 23.5833 70 25 70ZM10 55H14C15.4167 53.5 17.0417 52.2917 18.875 51.375C20.7083 50.4583 22.75 50 25 50C27.25 50 29.2917 50.4583 31.125 51.375C32.9583 52.2917 34.5833 53.5 36 55H70V10H10V55ZM85 70C86.4167 70 87.6033 69.52 88.56 68.56C89.52 67.6033 90 66.4167 90 65C90 63.5833 89.52 62.3967 88.56 61.44C87.6033 60.48 86.4167 60 85 60C83.5833 60 82.3967 60.48 81.44 61.44C80.48 62.3967 80 63.5833 80 65C80 66.4167 80.48 67.6033 81.44 68.56C82.3967 69.52 83.5833 70 85 70ZM80 45H101.25L90 30H80V45Z" fill="#202020"/>
</svg>
