<svg width="30" height="28" viewBox="0 0 30 28" fill="none" xmlns="http://www.w3.org/2000/svg">
<path d="M15 27.5494L12.825 25.5994C10.3 23.3244 8.2125 21.3619 6.5625 19.7119C4.9125 18.0619 3.6 16.5804 2.625 15.2674C1.65 13.9554 0.969 12.7494 0.582 11.6494C0.194 10.5494 0 9.42441 0 8.27441C0 5.92441 0.7875 3.96191 2.3625 2.38691C3.9375 0.811914 5.9 0.0244141 8.25 0.0244141C9.55 0.0244141 10.7875 0.299414 11.9625 0.849414C13.1375 1.39941 14.15 2.17441 15 3.17441C15.85 2.17441 16.8625 1.39941 18.0375 0.849414C19.2125 0.299414 20.45 0.0244141 21.75 0.0244141C24.1 0.0244141 26.0625 0.811914 27.6375 2.38691C29.2125 3.96191 30 5.92441 30 8.27441C30 9.42441 29.8065 10.5494 29.4195 11.6494C29.0315 12.7494 28.35 13.9554 27.375 15.2674C26.4 16.5804 25.0875 18.0619 23.4375 19.7119C21.7875 21.3619 19.7 23.3244 17.175 25.5994L15 27.5494ZM15 23.4994C17.4 21.3494 19.375 19.5054 20.925 17.9674C22.475 16.4304 23.7 15.0934 24.6 13.9564C25.5 12.8184 26.125 11.8054 26.475 10.9174C26.825 10.0304 27 9.14941 27 8.27441C27 6.77441 26.5 5.52441 25.5 4.52441C24.5 3.52441 23.25 3.02441 21.75 3.02441C20.575 3.02441 19.4875 3.35541 18.4875 4.01741C17.4875 4.68041 16.8 5.52441 16.425 6.54941H13.575C13.2 5.52441 12.5125 4.68041 11.5125 4.01741C10.5125 3.35541 9.425 3.02441 8.25 3.02441C6.75 3.02441 5.5 3.52441 4.5 4.52441C3.5 5.52441 3 6.77441 3 8.27441C3 9.14941 3.175 10.0304 3.525 10.9174C3.875 11.8054 4.5 12.8184 5.4 13.9564C6.3 15.0934 7.525 16.4304 9.075 17.9674C10.625 19.5054 12.6 21.3494 15 23.4994Z" fill="#202020"/>
</svg>
