<svg width="120" height="120" viewBox="0 0 120 120" fill="none" xmlns="http://www.w3.org/2000/svg">
<mask id="mask0_95_451" style="mask-type:alpha" maskUnits="userSpaceOnUse" x="0" y="0" width="120" height="120">
<rect width="120" height="120" fill="#D9D9D9"/>
</mask>
<g mask="url(#mask0_95_451)">
<path d="M36.5 105C33.3333 105 30.625 103.853 28.375 101.56C26.125 99.27 25 96.5417 25 93.375V47L15.875 25H5V15H22.625L30.875 35H104.75C106.667 35 108.125 35.7917 109.125 37.375C110.125 38.9583 110.167 40.5833 109.25 42.25L95 70.125C99.25 70.7917 102.813 72.75 105.69 76C108.563 79.25 110 83.0833 110 87.5C110 92.3333 108.313 96.4583 104.94 99.875C101.563 103.292 97.4583 105 92.625 105C87.7083 105 83.5633 103.292 80.19 99.875C76.8133 96.4583 75.125 92.3333 75.125 87.5C75.125 85.8333 75.3333 84.2917 75.75 82.875C76.1667 81.4583 76.75 80.0833 77.5 78.75L61.125 77.25L46.125 99.75C45.0417 101.417 43.645 102.708 41.935 103.625C40.2283 104.542 38.4167 105 36.5 105ZM84.25 69.375L96.625 45L35 45.125L41.25 60C41.9167 61.6667 42.98 63.0617 44.44 64.185C45.8967 65.3117 47.5833 65.9583 49.5 66.125L84.25 69.375ZM36.625 94.875C36.7917 94.875 37.1667 94.6667 37.75 94.25L49.875 76.25C45.7917 75.8333 42.5833 74.8533 40.25 73.31C37.9167 71.77 36.1667 70.1667 35 68.5V93.5C35 93.9167 35.1667 94.25 35.5 94.5C35.8333 94.75 36.2083 94.875 36.625 94.875ZM92.5 95C94.6667 95 96.4583 94.27 97.875 92.81C99.2917 91.3533 100 89.5833 100 87.5C100 85.3333 99.2917 83.5417 97.875 82.125C96.4583 80.7083 94.6667 80 92.5 80C90.4167 80 88.6467 80.7083 87.19 82.125C85.73 83.5417 85 85.3333 85 87.5C85 89.5833 85.73 91.3533 87.19 92.81C88.6467 94.27 90.4167 95 92.5 95Z" fill="#202020"/>
</g>
</svg>
