<svg width="23" height="24" viewBox="0 0 23 24" fill="none" xmlns="http://www.w3.org/2000/svg">
<path d="M8.87499 23.6668L6.89166 20.1668H3.04166L0.416656 15.5002L2.39999 12.0002L0.416656 8.50016L3.04166 3.8335H6.89166L8.87499 0.333496H14.125L16.1083 3.8335H19.9583L22.5833 8.50016L20.6 12.0002L22.5833 15.5002L19.9583 20.1668H16.1083L14.125 23.6668H8.87499ZM16.1083 10.8335H18.6167L19.9 8.50016L18.6167 6.16683H16.1083L14.7958 8.50016L16.1083 10.8335ZM10.275 14.3335H12.725L14.0375 12.0002L12.725 9.66683H10.275L8.96249 12.0002L10.275 14.3335ZM10.275 7.3335H12.725L14.0667 4.971L12.7542 2.66683H10.2458L8.93332 4.971L10.275 7.3335ZM4.41249 10.8335H6.89166L8.20416 8.50016L6.89166 6.16683H4.41249L3.09999 8.50016L4.41249 10.8335ZM4.41249 17.8335H6.89166L8.20416 15.5002L6.89166 13.1668H4.38332L3.09999 15.5002L4.41249 17.8335ZM10.2458 21.3335H12.7542L14.0667 19.0293L12.725 16.6668H10.275L8.93332 19.0293L10.2458 21.3335ZM16.1083 17.8335H18.5875L19.9 15.5002L18.5875 13.1668H16.1083L14.7958 15.5002L16.1083 17.8335Z" fill="#202020"/>
</svg>
