<svg width="120" height="126" viewBox="0 0 120 126" fill="none" xmlns="http://www.w3.org/2000/svg">
<path d="M45.9375 125.5L35.3125 106.75H14.6875L0.625 81.75L11.25 63L0.625 44.25L14.6875 19.25H35.3125L45.9375 0.5H74.0625L84.6875 19.25H105.312L119.375 44.25L108.75 63L119.375 81.75L105.312 106.75H84.6875L74.0625 125.5H45.9375ZM84.6875 56.75H98.125L105 44.25L98.125 31.75H84.6875L77.6562 44.25L84.6875 56.75ZM53.4375 75.5H66.5625L73.5938 63L66.5625 50.5H53.4375L46.4062 63L53.4375 75.5ZM53.4375 38H66.5625L73.75 25.3438L66.7188 13H53.2812L46.25 25.3438L53.4375 38ZM22.0313 56.75H35.3125L42.3438 44.25L35.3125 31.75H22.0313L15 44.25L22.0313 56.75ZM22.0313 94.25H35.3125L42.3438 81.75L35.3125 69.25H21.875L15 81.75L22.0313 94.25ZM53.2812 113H66.7188L73.75 100.656L66.5625 88H53.4375L46.25 100.656L53.2812 113ZM84.6875 94.25H97.9688L105 81.75L97.9688 69.25H84.6875L77.6562 81.75L84.6875 94.25Z" fill="#FFD100"/>
</svg>
