<svg width="1440" height="1122" viewBox="0 0 1440 1122" fill="none" xmlns="http://www.w3.org/2000/svg">
<path d="M-13 65.9716C-9.52432 55.2605 5.4419 76.8484 6.22808 78.181C27.4946 114.227 62.3096 142.874 96.2409 172.112C126.16 197.892 155.528 224.341 183.507 251.391C219.428 286.121 246.639 325.434 279.647 361.764C306.565 391.39 340.132 416.32 372.829 442.183C415.287 475.766 457.063 510.856 502.566 541.974C597.53 606.917 708.98 655.016 814.441 708.672C902.541 753.496 987.958 800.749 1080.25 840.208C1156.61 872.854 1224.85 914.094 1288.59 959.697C1334.89 992.814 1375.69 1030.19 1426.36 1059.33C1469.4 1084.08 1518.48 1112 1573 1115" stroke="#FFD100" stroke-width="13" stroke-linecap="round"/>
<path d="M189.349 621C189.349 635.699 178.451 652.072 172.483 664.903C166.752 677.224 158.88 688.762 152.785 700.952C139.718 727.086 114.93 747.142 92.4022 764.811C76.1428 777.564 59.5964 789.693 42.8342 801.762C36.4693 806.345 30.7287 811.512 23.9083 815.409C15.6171 820.147 5.71082 822.033 -3 824.937" stroke="#FFD100" stroke-width="13" stroke-linecap="round"/>
<path d="M1189.39 7C1184.21 17.9973 1191.72 30.99 1197.58 40.0467C1207.08 54.7276 1216.42 69.0487 1228.88 81.5066C1249.01 101.632 1272.69 118.01 1294.9 135.7C1331.96 165.224 1357.3 210.827 1371.45 255.305C1377.39 273.973 1377.2 293.713 1376 313.212C1373.56 352.607 1351.77 380.806 1334.46 414.474C1324.28 434.275 1306.04 447.82 1287.7 459.724C1265.44 474.17 1243.16 485.726 1218.65 495.727C1194.42 505.612 1170.97 517.638 1146.87 527.94C1125.94 536.887 1104.25 542.995 1082.22 548.556C1041.28 558.889 998.805 561.6 956.775 562.351C931.346 562.805 906.169 566.368 880.677 566.368C838.218 566.368 795.95 570.461 753.417 570.461C734.695 570.461 715.974 570.461 697.253 570.461C659.753 570.461 622.422 571.825 585 571.825" stroke="#FFD100" stroke-width="13" stroke-linecap="round"/>
</svg>
