<svg width="1440" height="1045" viewBox="0 0 1440 1045" fill="none" xmlns="http://www.w3.org/2000/svg">
<path d="M-38 7C-38 17.9976 -37.1958 26.1218 -28.3854 33.8643C-7.41995 52.2885 23.6199 64.684 48.814 75.9987C133.191 113.893 220.022 144.158 309.115 168.751C409.088 196.348 509.943 216.491 603.632 262.917C650.526 286.155 696.832 311.213 741.205 338.986C779.162 362.743 827.351 387.096 852.904 424.951C878.572 462.979 907.735 498.617 938.162 532.974C971.706 570.85 1012.6 599.536 1051.13 631.948C1084.39 659.923 1119.97 684.887 1155.62 709.712C1211.77 748.803 1268.2 788.807 1327.27 823.391C1365.45 845.745 1404.97 864.612 1440.38 891.4C1468.1 912.368 1478.94 937.888 1487.47 971.003C1493.26 993.489 1497.49 1020.76 1514.47 1037.74" stroke="#FFD100" stroke-width="13" stroke-linecap="round"/>
</svg>
