<svg width="220" height="220" viewBox="0 0 220 220" fill="none" xmlns="http://www.w3.org/2000/svg">
<circle cx="110" cy="110" r="108" stroke="#FFEE32" stroke-width="4"/>
<mask id="mask0_170_1099" style="mask-type:alpha" maskUnits="userSpaceOnUse" x="50" y="50" width="120" height="120">
<rect x="50" y="50" width="120" height="120" fill="#D9D9D9"/>
</mask>
<g mask="url(#mask0_170_1099)">
<path d="M110 110C112.75 110 115.105 109.02 117.065 107.06C119.022 105.103 120 102.75 120 100C120 97.25 119.022 94.895 117.065 92.935C115.105 90.9783 112.75 90 110 90C107.25 90 104.897 90.9783 102.94 92.935C100.98 94.895 100 97.25 100 100C100 102.75 100.98 105.103 102.94 107.06C104.897 109.02 107.25 110 110 110ZM110 146.75C120.167 137.417 127.708 128.937 132.625 121.31C137.542 113.687 140 106.917 140 101C140 91.9167 137.103 84.4783 131.31 78.685C125.52 72.895 118.417 70 110 70C101.583 70 94.4783 72.895 88.685 78.685C82.895 84.4783 80 91.9167 80 101C80 106.917 82.4583 113.687 87.375 121.31C92.2917 128.937 99.8333 137.417 110 146.75ZM110 160C96.5833 148.583 86.5633 137.978 79.94 128.185C73.3133 118.395 70 109.333 70 101C70 88.5 74.0217 78.5417 82.065 71.125C90.105 63.7083 99.4167 60 110 60C120.583 60 129.895 63.7083 137.935 71.125C145.978 78.5417 150 88.5 150 101C150 109.333 146.688 118.395 140.065 128.185C133.438 137.978 123.417 148.583 110 160Z" fill="#202020"/>
</g>
</svg>
