<svg width="90" height="90" viewBox="0 0 90 90" fill="none" xmlns="http://www.w3.org/2000/svg">
<path d="M80 45C80 35.25 76.6033 26.9783 69.81 20.185C63.02 13.395 54.75 10 45 10V0C51.25 0 57.105 1.18667 62.565 3.56C68.0217 5.93667 72.7717 9.145 76.815 13.185C80.855 17.2283 84.0633 21.9783 86.44 27.435C88.8133 32.895 90 38.75 90 45H80ZM60 45C60 40.8333 58.5417 37.2917 55.625 34.375C52.7083 31.4583 49.1667 30 45 30V20C51.9167 20 57.8133 22.4367 62.69 27.31C67.5633 32.1867 70 38.0833 70 45H60ZM84.75 90C74 90 63.5217 87.6033 53.315 82.81C43.105 78.02 34.0633 71.6867 26.19 63.81C18.3133 55.9367 11.98 46.895 7.19 36.685C2.39667 26.4783 0 16 0 5.25C0 3.75 0.5 2.5 1.5 1.5C2.5 0.5 3.75 0 5.25 0H25.5C26.6667 0 27.7083 0.374999 28.625 1.125C29.5417 1.875 30.0833 2.83333 30.25 4L33.5 21.5C33.6667 22.6667 33.6467 23.7283 33.44 24.685C33.23 25.645 32.75 26.5 32 27.25L19.875 39.5C23.375 45.5 27.7717 51.125 33.065 56.375C38.355 61.625 44.1667 66.1667 50.5 70L62.25 58.25C63 57.5 63.98 56.9367 65.19 56.56C66.3967 56.1867 67.5833 56.0833 68.75 56.25L86 59.75C87.1667 60 88.125 60.5617 88.875 61.435C89.625 62.3117 90 63.3333 90 64.5V84.75C90 86.25 89.5 87.5 88.5 88.5C87.5 89.5 86.25 90 84.75 90ZM15.125 30L23.375 21.75L21.25 10H10.125C10.5417 13.4167 11.125 16.7917 11.875 20.125C12.625 23.4583 13.7083 26.75 15.125 30ZM59.875 74.75C63.125 76.1667 66.4383 77.2917 69.815 78.125C73.1883 78.9583 76.5833 79.5 80 79.75V68.75L68.25 66.375L59.875 74.75Z" fill="#202020"/>
</svg>
