<svg width="220" height="220" viewBox="0 0 220 220" fill="none" xmlns="http://www.w3.org/2000/svg">
<circle cx="110" cy="110" r="108" stroke="#FFEE32" stroke-width="4"/>
<mask id="mask0_130_423" style="mask-type:alpha" maskUnits="userSpaceOnUse" x="50" y="50" width="120" height="120">
<rect x="50" y="50" width="120" height="120" fill="#202020"/>
</mask>
<g mask="url(#mask0_130_423)">
<path d="M149.75 155C139 155 128.522 152.603 118.315 147.81C108.105 143.02 99.0633 136.687 91.19 128.81C83.3133 120.937 76.98 111.895 72.19 101.685C67.3967 91.4783 65 81 65 70.25C65 68.75 65.5 67.5 66.5 66.5C67.5 65.5 68.75 65 70.25 65H90.5C91.6667 65 92.7083 65.375 93.625 66.125C94.5417 66.875 95.0833 67.8333 95.25 69L98.5 86.5C98.6667 87.6667 98.6467 88.7283 98.44 89.685C98.23 90.645 97.75 91.5 97 92.25L84.875 104.5C88.375 110.5 92.7717 116.125 98.065 121.375C103.355 126.625 109.167 131.167 115.5 135L127.25 123.25C128 122.5 128.98 121.937 130.19 121.56C131.397 121.187 132.583 121.083 133.75 121.25L151 124.75C152.167 125 153.125 125.562 153.875 126.435C154.625 127.312 155 128.333 155 129.5V149.75C155 151.25 154.5 152.5 153.5 153.5C152.5 154.5 151.25 155 149.75 155ZM80.125 95L88.375 86.75L86.25 75H75.125C75.5417 78.4167 76.125 81.7917 76.875 85.125C77.625 88.4583 78.7083 91.75 80.125 95ZM124.875 139.75C128.125 141.167 131.438 142.292 134.815 143.125C138.188 143.958 141.583 144.5 145 144.75V133.75L133.25 131.375L124.875 139.75Z" fill="#202020"/>
</g>
</svg>
