<svg width="50" height="50" viewBox="0 0 50 50" fill="none" xmlns="http://www.w3.org/2000/svg">
<mask id="mask0_345_810" style="mask-type:alpha" maskUnits="userSpaceOnUse" x="0" y="0" width="50" height="50">
<rect width="50" height="50" fill="#D9D9D9"/>
</mask>
<g mask="url(#mask0_345_810)">
<path d="M17.5 35.417L25 27.917L32.5 35.417L35.4167 32.5003L27.9167 25.0003L35.4167 17.5003L32.5 14.5837L25 22.0837L17.5 14.5837L14.5834 17.5003L22.0834 25.0003L14.5834 32.5003L17.5 35.417ZM25 45.8337C22.1181 45.8337 19.4097 45.2864 16.875 44.192C14.3403 43.0989 12.1354 41.6149 10.2604 39.7399C8.38544 37.8649 6.90141 35.66 5.80835 33.1253C4.71391 30.5906 4.16669 27.8823 4.16669 25.0003C4.16669 22.1184 4.71391 19.41 5.80835 16.8753C6.90141 14.3406 8.38544 12.1357 10.2604 10.2607C12.1354 8.38574 14.3403 6.90102 16.875 5.80658C19.4097 4.71352 22.1181 4.16699 25 4.16699C27.882 4.16699 30.5903 4.71352 33.125 5.80658C35.6597 6.90102 37.8646 8.38574 39.7396 10.2607C41.6146 12.1357 43.0986 14.3406 44.1917 16.8753C45.2861 19.41 45.8334 22.1184 45.8334 25.0003C45.8334 27.8823 45.2861 30.5906 44.1917 33.1253C43.0986 35.66 41.6146 37.8649 39.7396 39.7399C37.8646 41.6149 35.6597 43.0989 33.125 44.192C30.5903 45.2864 27.882 45.8337 25 45.8337ZM25 41.667C29.6528 41.667 33.5938 40.0524 36.8229 36.8232C40.0521 33.5941 41.6667 29.6531 41.6667 25.0003C41.6667 20.3475 40.0521 16.4066 36.8229 13.1774C33.5938 9.94824 29.6528 8.33366 25 8.33366C20.3472 8.33366 16.4063 9.94824 13.1771 13.1774C9.94794 16.4066 8.33335 20.3475 8.33335 25.0003C8.33335 29.6531 9.94794 33.5941 13.1771 36.8232C16.4063 40.0524 20.3472 41.667 25 41.667Z" fill="#FFD100"/>
</g>
</svg>
