<svg width="29" height="29" viewBox="0 0 29 29" fill="none" xmlns="http://www.w3.org/2000/svg">
<mask id="mask0_757_433" style="mask-type:alpha" maskUnits="userSpaceOnUse" x="0" y="0" width="29" height="29">
<rect x="0.5" y="0.0493164" width="28" height="28" fill="#D9D9D9"/>
</mask>
<g mask="url(#mask0_757_433)">
<path d="M8.66666 25.7161C8.025 25.7161 7.47589 25.4879 7.01933 25.0313C6.562 24.574 6.33333 24.0245 6.33333 23.3828C6.33333 22.7411 6.562 22.1916 7.01933 21.7343C7.47589 21.2778 8.025 21.0495 8.66666 21.0495C9.30833 21.0495 9.85744 21.2778 10.314 21.7343C10.7713 22.1916 11 22.7411 11 23.3828C11 24.0245 10.7713 24.574 10.314 25.0313C9.85744 25.4879 9.30833 25.7161 8.66666 25.7161ZM20.3333 25.7161C19.6917 25.7161 19.1426 25.4879 18.686 25.0313C18.2287 24.574 18 24.0245 18 23.3828C18 22.7411 18.2287 22.1916 18.686 21.7343C19.1426 21.2778 19.6917 21.0495 20.3333 21.0495C20.975 21.0495 21.5245 21.2778 21.9818 21.7343C22.4384 22.1916 22.6667 22.7411 22.6667 23.3828C22.6667 24.0245 22.4384 24.574 21.9818 25.0313C21.5245 25.4879 20.975 25.7161 20.3333 25.7161ZM7.675 7.04948L10.475 12.8828H18.6417L21.85 7.04948H7.675ZM6.56666 4.71615H23.775C24.2222 4.71615 24.5625 4.91526 24.7958 5.31348C25.0292 5.71248 25.0389 6.11615 24.825 6.52448L20.6833 13.9911C20.4694 14.38 20.1824 14.6814 19.8223 14.8953C19.463 15.1092 19.0694 15.2161 18.6417 15.2161H9.95L8.66666 17.5495H22.6667V19.8828H8.66666C7.79166 19.8828 7.13055 19.4986 6.68333 18.7301C6.23611 17.9625 6.21666 17.1995 6.625 16.4411L8.2 13.5828L4 4.71615H1.66666V2.38281H5.45833L6.56666 4.71615Z" fill="#202020"/>
</g>
</svg>
