<svg width="30" height="30" viewBox="0 0 30 30" fill="none" xmlns="http://www.w3.org/2000/svg">
<g clip-path="url(#clip0_370_1207)">
<path d="M30 15C30 23.2875 23.2875 30 15 30C6.7125 30 0 23.2875 0 15C0 6.7125 6.7125 0 15 0C23.2875 0 30 6.7125 30 15Z" fill="url(#paint0_linear_370_1207)"/>
<path d="M12.25 21.875C11.7625 21.875 11.85 21.6875 11.675 21.225L10.25 16.525L19.1 11L20.1375 11.275L19.275 13.625L12.25 21.875Z" fill="#C8DAEA"/>
<path d="M12.25 21.875C12.625 21.875 12.7875 21.7 13 21.5C13.325 21.1875 17.5 17.125 17.5 17.125L14.9375 16.5L12.5625 18L12.25 21.75V21.875Z" fill="#A9C9DD"/>
<path d="M12.5 18.0496L18.55 22.5121C19.2375 22.8871 19.7375 22.6996 19.9125 21.8746L22.375 10.2746C22.625 9.26207 21.9875 8.81207 21.325 9.11207L6.87501 14.6871C5.88751 15.0871 5.90001 15.6371 6.70001 15.8746L10.4125 17.0371L19 11.6246C19.4 11.3746 19.775 11.5121 19.475 11.7871L12.5 18.0496Z" fill="url(#paint1_linear_370_1207)"/>
</g>
<defs>
<linearGradient id="paint0_linear_370_1207" x1="19.3963" y1="4.74125" x2="11.8962" y2="22.241" gradientUnits="userSpaceOnUse">
<stop stop-color="#37AEE2"/>
<stop offset="1" stop-color="#1E96C8"/>
</linearGradient>
<linearGradient id="paint1_linear_370_1207" x1="16.1239" y1="15.4689" x2="19.2489" y2="20.4689" gradientUnits="userSpaceOnUse">
<stop stop-color="#EFF7FC"/>
<stop offset="1" stop-color="white"/>
</linearGradient>
<clipPath id="clip0_370_1207">
<rect width="30" height="30" fill="white"/>
</clipPath>
</defs>
</svg>
