<svg width="413" height="921" viewBox="0 0 413 921" fill="none" xmlns="http://www.w3.org/2000/svg">
<path d="M0 6C19.9697 26.2599 45.0396 43.222 68.8711 60.0359C80.7907 68.4455 94.8655 75.905 105.546 85.6032C111.521 91.0296 117.019 96.9339 123.67 101.741C135.585 110.355 144.928 122.319 152.028 134.018C162.827 151.812 174.472 168.731 179.96 188.417C186.069 210.325 192.907 237.094 186.784 259.497C183.412 271.834 177.102 283.444 173.564 295.763C169.15 311.13 167.827 326.958 167.38 342.727C165.913 394.525 182.294 439.525 207.893 486.339C227.742 522.64 256.722 553.888 281.455 587.702C299.681 612.621 314.292 637.182 319.622 666.58C323.482 687.872 322.394 709.661 322.394 731.133C322.394 748.099 321.008 766.029 329.856 781.724C339.968 799.658 353.514 816.973 371.009 830.32C385.707 841.532 403.411 854.394 406.404 872.206C409.299 889.44 401.119 899.677 393.397 915" stroke="#FFD100" stroke-width="12" stroke-linecap="round"/>
</svg>
