<svg width="220" height="220" viewBox="0 0 220 220" fill="none" xmlns="http://www.w3.org/2000/svg">
<circle cx="110" cy="110" r="108" stroke="#FFEE32" stroke-width="4"/>
<mask id="mask0_170_1101" style="mask-type:alpha" maskUnits="userSpaceOnUse" x="50" y="50" width="120" height="120">
<rect x="50" y="50" width="120" height="120" fill="#D9D9D9"/>
</mask>
<g mask="url(#mask0_170_1101)">
<path d="M126.5 133.5L133.5 126.5L115 108V85H105V112L126.5 133.5ZM110 160C103.083 160 96.5833 158.687 90.5 156.06C84.4167 153.437 79.125 149.875 74.625 145.375C70.125 140.875 66.5633 135.583 63.94 129.5C61.3133 123.417 60 116.917 60 110C60 103.083 61.3133 96.5833 63.94 90.5C66.5633 84.4167 70.125 79.125 74.625 74.625C79.125 70.125 84.4167 66.5617 90.5 63.935C96.5833 61.3117 103.083 60 110 60C116.917 60 123.417 61.3117 129.5 63.935C135.583 66.5617 140.875 70.125 145.375 74.625C149.875 79.125 153.437 84.4167 156.06 90.5C158.687 96.5833 160 103.083 160 110C160 116.917 158.687 123.417 156.06 129.5C153.437 135.583 149.875 140.875 145.375 145.375C140.875 149.875 135.583 153.437 129.5 156.06C123.417 158.687 116.917 160 110 160ZM110 150C121.083 150 130.522 146.105 138.315 138.315C146.105 130.522 150 121.083 150 110C150 98.9167 146.105 89.4783 138.315 81.685C130.522 73.895 121.083 70 110 70C98.9167 70 89.48 73.895 81.69 81.685C73.8967 89.4783 70 98.9167 70 110C70 121.083 73.8967 130.522 81.69 138.315C89.48 146.105 98.9167 150 110 150Z" fill="#202020"/>
</g>
</svg>
