<svg width="30" height="32" viewBox="0 0 30 32" fill="none" xmlns="http://www.w3.org/2000/svg">
<path d="M0 31.0694L2.12055 23.3352C0.813699 21.0667 0.123288 18.5023 0.123288 15.8639C0.123288 7.62832 6.83014 0.929688 15.0575 0.929688C19.0521 0.929688 22.8 2.48311 25.6274 5.31051C28.4466 8.12969 30 11.8859 30 15.8722C30 24.1078 23.2931 30.8064 15.0658 30.8064H15.0575C12.5589 30.8064 10.1014 30.1817 7.92329 28.99L0 31.0694ZM8.28493 26.2941L8.73699 26.5653C10.6438 27.6996 12.8301 28.2913 15.0575 28.2996H15.0658C21.9123 28.2996 27.4767 22.7352 27.4767 15.8886C27.4767 12.568 26.1863 9.45298 23.8438 7.11051C21.5014 4.76804 18.3863 3.46941 15.0658 3.46941C8.21918 3.46941 2.64657 9.0338 2.64657 15.8804C2.64657 18.2228 3.30411 20.5078 4.54521 22.4886L4.8411 22.9571L3.58356 27.5352L8.28493 26.2941Z" fill="white"/>
<path d="M0.517792 30.5519L2.56437 23.0807C1.29861 20.8944 0.641079 18.4122 0.641079 15.8725C0.641079 7.92455 7.10957 1.45605 15.0575 1.45605C18.9123 1.45605 22.537 2.96016 25.2575 5.68071C27.9781 8.40948 29.4822 12.0259 29.474 15.8807C29.474 23.8287 23.0055 30.2971 15.0575 30.2971H15.0493C12.6329 30.2971 10.2657 29.6889 8.16163 28.5465L0.517792 30.5519Z" fill="url(#paint0_linear_370_1214)"/>
<path d="M0 31.0694L2.12055 23.3352C0.813699 21.0667 0.123288 18.5023 0.123288 15.8639C0.123288 7.62832 6.83014 0.929688 15.0575 0.929688C19.0521 0.929688 22.8 2.48311 25.6274 5.31051C28.4466 8.12969 30 11.8859 30 15.8722C30 24.1078 23.2931 30.8064 15.0658 30.8064H15.0575C12.5589 30.8064 10.1014 30.1817 7.92329 28.99L0 31.0694ZM8.28493 26.2941L8.73699 26.5653C10.6438 27.6996 12.8301 28.2913 15.0575 28.2996H15.0658C21.9123 28.2996 27.4767 22.7352 27.4767 15.8886C27.4767 12.568 26.1863 9.45298 23.8438 7.11051C21.5014 4.76804 18.3863 3.46941 15.0658 3.46941C8.21918 3.46941 2.64657 9.0338 2.64657 15.8804C2.64657 18.2228 3.30411 20.5078 4.54521 22.4886L4.8411 22.9571L3.58356 27.5352L8.28493 26.2941Z" fill="url(#paint1_linear_370_1214)"/>
<path d="M11.326 9.62588C11.0466 9.00122 10.7507 8.993 10.4877 8.98478C10.274 8.97656 10.0192 8.97656 9.77259 8.97656C9.52602 8.97656 9.12328 9.06697 8.77807 9.44506C8.43287 9.81492 7.47122 10.719 7.47122 12.5601C7.47122 14.393 8.81095 16.1683 8.99177 16.4231C9.18081 16.6697 11.5726 20.5574 15.3699 22.0533C18.526 23.2944 19.1671 23.0478 19.8493 22.9903C20.5315 22.9245 22.0603 22.0862 22.3726 21.2149C22.6849 20.3437 22.6849 19.5957 22.5863 19.4396C22.4959 19.2834 22.2411 19.193 21.8712 19.004C21.5014 18.8149 19.6603 17.9108 19.3233 17.7875C18.9781 17.6642 18.7315 17.5985 18.4849 17.9766C18.2383 18.3464 17.5233 19.193 17.3014 19.4396C17.0877 19.6862 16.8657 19.719 16.4959 19.53C16.126 19.3409 14.9178 18.9464 13.4959 17.6807C12.3863 16.6944 11.6383 15.4697 11.4164 15.0999C11.2027 14.73 11.3918 14.5245 11.5808 14.3355C11.7452 14.1711 11.9507 13.8998 12.1397 13.6779C12.3288 13.456 12.3863 13.3081 12.5096 13.0533C12.6329 12.8067 12.5753 12.5848 12.4767 12.3957C12.3863 12.2067 11.663 10.3656 11.326 9.62588Z" fill="white"/>
<defs>
<linearGradient id="paint0_linear_370_1214" x1="14.9959" y1="30.5519" x2="14.9959" y2="1.45605" gradientUnits="userSpaceOnUse">
<stop stop-color="#20B038"/>
<stop offset="1" stop-color="#60D66A"/>
</linearGradient>
<linearGradient id="paint1_linear_370_1214" x1="15" y1="31.0694" x2="15" y2="0.929688" gradientUnits="userSpaceOnUse">
<stop stop-color="#F9F9F9"/>
<stop offset="1" stop-color="white"/>
</linearGradient>
</defs>
</svg>
